<svg xmlns="http://www.w3.org/2000/svg" width="1200" height="420" viewBox="0 0 1200 420" role="img" aria-labelledby="title desc">
  <title id="title">พร้อมสอบ logo</title>
  <desc id="desc">Modern Thai edtech logo with an exam sheet, OMR bubbles, and check mark icon beside the word พร้อมสอบ.</desc>
  <rect width="1200" height="420" fill="#FFFFFF"/>

  <g transform="translate(190 94)">
    <path d="M116 8c60 0 104 16 104 16v86c0 67-43 107-104 128C55 217 12 177 12 110V24s44-16 104-16Z" fill="#0F766E"/>
    <path d="M116 30c42 0 76 9 76 9v72c0 48-28 78-76 97-48-19-76-49-76-97V39s34-9 76-9Z" fill="#115E59" opacity=".32"/>
    <rect x="68" y="54" width="96" height="126" rx="16" fill="#F8FAFC"/>
    <path d="M136 54h12l16 16v12h-28V54Z" fill="#DBEAFE"/>
    <path d="M136 54v28h28" fill="none" stroke="#2563EB" stroke-width="6" stroke-linecap="round" stroke-linejoin="round"/>

    <circle cx="89" cy="91" r="8" fill="#0F766E"/>
    <circle cx="89" cy="121" r="8" fill="#2563EB"/>
    <circle cx="89" cy="151" r="8" fill="#0F766E" opacity=".9"/>
    <path d="M108 91h32M108 121h26M108 151h22" fill="none" stroke="#94A3B8" stroke-width="7" stroke-linecap="round"/>

    <path d="M72 44h-18a16 16 0 0 0-16 16v18M178 44h18a16 16 0 0 1 16 16v18M54 188H38v-18M178 188h18v-18" fill="none" stroke="#F59E0B" stroke-width="9" stroke-linecap="round"/>
    <path d="M88 155l22 22 47-56" fill="none" stroke="#F59E0B" stroke-width="16" stroke-linecap="round" stroke-linejoin="round"/>
  </g>

  <svg x="455" y="112" width="514" height="208.625" viewBox="0 0 514 208.625" aria-label="พร้อมสอบ">
    <defs>
      <g id="wordmark-glyph-0-0">
        <path d="M48.496-59.586l7.727 27.664c.3 1.348.617 2.708.953 4.09.336 1.383.636 2.895.894 4.535.262 1.645.504 3.454.73 5.434.223 1.977.446 4.199.672 6.664h.336c.075-5.004.282-9.168.618-12.489.336-3.324.687-6.066 1.062-8.234l4.926-30.797H80.64L70 0H53.984l-8.289-28.672a107.8 107.8 0 0 1-2.297-9.8 120.232 120.232 0 0 1-1.511-10.137h-.336a120.232 120.232 0 0 1-1.512 10.136 107.8 107.8 0 0 1-2.297 9.801L29.457 0H13.441L2.801-62.719h14.222l4.93 30.797c.371 2.168.727 4.91 1.063 8.234.335 3.321.543 7.485.617 12.489h.336c.222-2.465.445-4.687.672-6.664.222-1.98.464-3.789.726-5.434.262-1.64.543-3.152.84-4.535.3-1.382.637-2.742 1.008-4.09l7.73-27.664Z"/>
      </g>
      <g id="wordmark-glyph-0-1">
        <path d="M26.098-10.305c3.882 0 6.886-.558 9.015-1.68 2.125-1.12 3.192-2.835 3.192-5.152 0-1.343-.395-2.5-1.176-3.472-.785-.97-1.832-1.809-3.137-2.52-1.308-.707-2.762-1.344-4.367-1.902a683.77 683.77 0 0 1-4.762-1.625 84.632 84.632 0 0 1-7.894-2.969c-2.504-1.082-4.688-2.406-6.555-3.977-1.863-1.566-3.36-3.414-4.477-5.542-1.12-2.13-1.68-4.684-1.68-7.672 0-2.465.579-4.743 1.735-6.832 1.156-2.09 2.781-3.918 4.87-5.489 2.09-1.566 4.575-2.78 7.45-3.64 2.875-.856 6.027-1.285 9.465-1.285 4.777 0 8.976.52 12.597 1.566 3.621 1.047 7 2.39 10.137 4.031l-3.808 10.305c-2.91-1.567-5.84-2.668-8.793-3.305-2.95-.633-6.102-.95-9.461-.95-2.84 0-5.227.427-7.168 1.286-1.942.86-2.914 2.258-2.914 4.2 0 2.168 1.234 3.867 3.699 5.097 2.464 1.23 5.675 2.52 9.632 3.864 3.137 1.047 5.973 2.168 8.512 3.36 2.54 1.195 4.723 2.597 6.555 4.203 1.828 1.605 3.226 3.507 4.199 5.71.969 2.204 1.453 4.797 1.453 7.785 0 2.688-.52 5.133-1.566 7.336-1.047 2.2-2.614 4.125-4.704 5.766-2.09 1.644-4.703 2.914-7.84 3.809-3.136.895-6.832 1.344-11.09 1.344-4.48 0-8.64-.465-12.488-1.399-3.844-.988-7.262-2.316-10.246-4.03l3.472-11.09c2.762 1.495 5.672 2.671 8.735 3.527 3.062.86 6.199 1.29 9.41 1.29Z"/>
      </g>
      <g id="wordmark-glyph-0-2">
        <path d="M-19.602-83.441c0 1.12.524 1.68 1.57 1.68H-4.93v11.203h-19.933c-1.72 0-3.117-.489-4.2-1.457-1.086-.973-1.625-2.317-1.625-4.032v-2.8c0-1.122-.523-1.68-1.57-1.68h-6.605v-11.536h11.984c2.238 0 4.012.504 5.32 1.512 1.305 1.008 1.957 2.594 1.957 4.758Z"/>
      </g>
      <g id="wordmark-glyph-0-3">
        <path d="M20.383-24.754c-1.344 0-2.016.711-2.016 2.129v.336c0 7.992 4.445 11.984 13.328 11.984 5.301 0 9.485-1.754 12.543-5.261 3.063-3.512 4.594-9 4.594-16.465 0-6.57-1.66-11.613-4.984-15.121-3.325-3.508-7.672-5.262-13.047-5.262-4.555 0-8.664.801-12.32 2.406-3.66 1.606-6.907 3.492-9.747 5.656L4.031-55.215c3.137-2.242 6.98-4.277 11.535-6.105 4.555-1.828 9.97-2.743 16.242-2.743 4.63 0 8.883.707 12.766 2.125 3.883 1.422 7.227 3.512 10.027 6.274 2.797 2.762 4.965 6.16 6.497 10.191 1.527 4.032 2.293 8.66 2.293 13.887 0 11.05-2.743 19.305-8.23 24.754C49.671-1.382 42.222 1.344 32.815 1.344c-4.777 0-8.96-.559-12.543-1.68-3.585-1.457-6.554-3.062-8.906-5.152-2.351-2.09-4.125-4.59-5.32-7.5-1.195-2.91-1.789-6.121-1.789-9.633v-1.902c0-4.105.895-7.168 2.688-9.184 1.789-2.015 4.703-3.023 8.734-3.023h14.336v11.976Z"/>
      </g>
      <g id="wordmark-glyph-0-4">
        <path d="M47.711-62.719h14.563v40.207c0 7.914-1.907 13.867-5.715 17.864-3.805 3.996-9.07 5.992-15.79 5.992-2.167 0-4.183-.281-6.05-.84-1.867-.558-3.601-1.27-5.207-2.129-1.605-.86-3.043-1.828-4.312-2.91-1.27-1.082-2.313-2.149-3.137-3.192L20.496 0H7.504v-62.719h14.559v42.223c.672 1.418 1.53 2.742 2.578 3.976 1.043 1.231 2.238 2.313 3.582 3.247 1.344.933 2.782 1.664 4.313 2.183 1.531.524 3.082.785 4.648.785 7.02 0 10.527-4.293 10.527-12.879Z"/>
      </g>
      <g id="wordmark-glyph-0-5">
        <path d="M45.246 0v-27.441H31.586c-4.184 0-7.524.617-10.027 1.847-2.5 1.235-3.75 3.493-3.75 6.778 0 2.687.859 4.797 2.574 6.328 1.719 1.53 3.848 2.297 6.387 2.297 1.343 0 2.742-.133 4.199-.395 1.457-.258 2.93-.762 4.421-1.512l2.352 10.641c-1.941.898-3.937 1.531-5.988 1.906-2.055.371-4.239.559-6.555.559-3.062 0-5.898-.41-8.512-1.23-2.613-.824-4.89-2.055-6.832-3.7-1.941-1.64-3.472-3.695-4.59-6.156-1.12-2.465-1.68-5.34-1.68-8.625 0-6.945 2.407-12.004 7.224-15.176 4.816-3.176 12.113-4.762 21.894-4.762h12.543v-2.128c0-1.567-.258-3.079-.781-4.536-.524-1.457-1.309-2.742-2.352-3.863-1.047-1.121-2.37-2.016-3.976-2.688-1.606-.671-3.493-1.007-5.657-1.007-4.629 0-8.68.671-12.152 2.015-3.473 1.344-6.703 3.098-9.688 5.262L6.047-55.664c2.914-2.164 6.703-4.106 11.367-5.824 4.668-1.72 9.914-2.575 15.738-2.575 1.72 0 3.414.149 5.094.446 1.684.3 3.156.71 4.426 1.234l3.808-4.707h16.016l-9.184 10.977c1.942 2.093 3.454 4.445 4.536 7.058 1.082 2.614 1.625 5.375 1.625 8.286V0Z"/>
      </g>
      <g id="wordmark-glyph-0-6">
        <path d="M34.945 1.344c-8.738 0-15.53-2.09-20.386-6.274-4.852-4.18-7.278-10.488-7.278-18.925v-38.864h14.558v38.864c0 4.332 1.156 7.672 3.473 10.023 2.312 2.352 5.523 3.527 9.633 3.527 4.105 0 7.316-1.175 9.629-3.527 2.316-2.351 3.472-5.691 3.472-10.023v-38.864H62.61v38.864c0 8.437-2.43 14.746-7.282 18.925-4.851 4.184-11.648 6.274-20.383 6.274Z"/>
      </g>
    </defs>
    <g fill="#0F172A">
      <use href="#wordmark-glyph-0-0" x="16" y="139.531"/>
      <use href="#wordmark-glyph-0-1" x="99.438" y="139.531"/>
      <use href="#wordmark-glyph-0-2" x="156.328" y="139.531"/>
      <use href="#wordmark-glyph-0-3" x="156.328" y="139.531"/>
      <use href="#wordmark-glyph-0-4" x="224.203" y="139.531"/>
      <use href="#wordmark-glyph-0-5" x="293.75" y="139.531"/>
      <use href="#wordmark-glyph-0-3" x="360.5" y="139.531"/>
      <use href="#wordmark-glyph-0-6" x="428.375" y="139.531"/>
    </g>
  </svg>
</svg>
